<svg width="470" height="470" viewBox="0 0 470 470" fill="none" xmlns="http://www.w3.org/2000/svg">
<path fill-rule="evenodd" clip-rule="evenodd" d="M459.805 339.969C456.745 343.035 451.173 347.15 446.768 345.279C444.555 344.339 442.666 342.276 440.651 340.946C438.283 339.382 436.057 337.818 434.05 335.734C430.046 331.575 427.014 325.499 422.284 322.243C420.695 321.149 417.592 320.914 416.489 319.166C415.995 318.382 415.949 317.193 416.04 316.287C416.238 314.336 417.229 314.451 415.573 313.018H418.145C418.195 311.961 417.203 311.874 416.464 312.01C416.807 310.335 417.157 303.78 414.286 306.751C411.797 309.326 413.042 313.598 411.279 316.387C409.93 318.522 406.349 316.793 405.865 314.444C405.648 313.388 406.742 311.74 406.872 310.705C407.158 308.41 406.194 306.426 404.794 304.688C401.724 306.864 403.464 311.366 401.714 314.225C400.131 316.811 396.605 315.604 394.194 315.149C391.303 314.603 388.035 315.156 385.27 314.43C381.095 313.334 382.654 308.122 382.241 304.757C381.798 301.153 378.372 296.151 379.402 292.515C380.507 288.611 386.97 287.767 390.059 286.82C397.12 284.654 407.191 284.238 412.44 278.175C416.615 283.126 419.973 288.795 424.351 293.561C429.081 298.709 434.133 303.461 438.673 308.817C443.399 314.39 448.277 319.856 452.831 325.591C454.818 328.093 456.563 330.789 458.618 333.231C460.446 335.401 462.372 337.398 459.805 339.969ZM249.95 243.685C252.119 242.459 252.395 243.228 252.395 245.754C251.77 244.541 251.151 244.216 249.95 243.685ZM231.555 292.801V288.347C233.646 288.289 232.36 292.098 231.555 292.801ZM231.044 299.433C231.044 297.461 230.994 295.583 231.528 293.665C231.809 295.755 232.345 297.565 231.044 299.433ZM240.036 434.913C241.957 435.104 244.918 433.697 246.533 435.299C248.193 436.946 248.06 441.739 248.453 443.964C249.103 447.64 249.678 451.329 250.226 455.023C250.585 457.446 251.028 459.905 248.453 460.832C244.647 462.201 239.209 460.247 235.242 460.07C227.406 459.719 219.572 459.232 211.729 459.062C204.128 458.899 196.508 459.028 188.941 459.869C185.523 460.249 182.18 460.92 178.797 461.527C177.014 461.847 172.235 463.187 170.624 461.588C167.594 458.579 172.632 451.554 174.799 449.569C178.821 445.887 184.54 443.232 189.584 441.633C192.279 440.778 196.772 438.378 198.895 441.062C200.523 443.121 200.459 445.869 202.793 447.429C208.201 451.044 205.037 440.675 201.657 439.399C203.926 433.751 208.252 441.725 210.046 443.64C210.684 444.322 212.76 446.569 213.662 445.439C214.337 444.594 212.989 441.563 212.739 440.739C212.359 439.486 211.398 437.582 211.675 436.223C212.174 433.766 215.416 433.096 217.358 432.892C220.369 432.575 223.323 433.589 226.3 433.928C230.865 434.449 235.466 434.457 240.036 434.913ZM209.803 203.422C203.859 203.925 197.877 202.959 191.947 203.75C186.337 204.499 181.049 206.689 175.76 208.701C183.623 189.092 193.797 171.24 206.196 154.518C212.371 146.189 219.012 137.917 225.684 130.035C228.789 126.367 232 122.822 235.206 119.257C238.065 116.078 240.114 110.677 243.546 108.303C246.475 106.276 251.593 107.722 254.839 107.847C258.508 107.989 262.973 108.344 266.551 107.046C269.144 106.105 269.857 103.594 266.611 103.51C262.783 103.412 259.018 103.836 255.14 103.454C245.092 102.467 235.406 100.845 225.276 101.765C222.955 101.975 219.901 103.026 217.623 102.711C215.986 102.483 217.063 103.358 215.924 101.961C215.488 101.427 214.963 100.17 214.834 99.4601C214.109 95.4722 216.168 89.7736 216.661 85.7587C217.117 82.0431 216.713 77.9592 217.566 74.3409C218.343 71.0481 220.71 70.6089 223.626 70.2571C231.602 69.2941 239.742 68.7816 247.754 68.056C266.039 66.4 284.905 63.9018 303.065 67.9942C309.623 69.4718 317.619 71.7567 323.477 75.4155C325.309 76.5591 327.158 77.9059 326.491 80.2755C325.8 82.7353 322.411 85.3337 320.733 86.9541C308.328 98.9284 296.347 111.142 287.632 126.507C276.52 146.099 270.142 167.26 266.4 189.711C265.596 194.541 264.848 197.069 260.175 198.459C255.158 199.952 250.315 200.922 245.113 201.377C233.353 202.404 221.557 202.425 209.803 203.422ZM213.786 73.6721C212.885 80.8043 211.665 87.9207 211.545 95.109C211.499 97.824 211.257 99.1843 208.542 99.7898C205.341 100.503 202.087 101.035 198.871 101.776C183.351 105.352 168.125 109.744 152.941 114.688C138.185 119.494 123.671 124.9 108.583 128.46C102.093 129.992 94.4985 131.024 88.5871 134.415C82.2278 138.064 83.0647 144.046 82.4939 150.617C81.7312 159.395 79.2828 167.896 78.4219 176.671C78.0102 180.864 77.6352 185.082 77.6974 189.302C77.7502 192.899 78.2348 196.876 75.9608 199.903C71.399 193.419 69.2366 185.262 68.3376 177.314C67.9005 173.451 68.0736 169.556 67.9486 165.675C67.8477 162.55 67.9132 157.579 65.9989 154.969C61.8373 149.297 56.4253 172.026 55.9106 174.454C55.045 178.539 54.3311 182.658 53.4689 186.744C53.0866 188.555 52.5959 195.138 50.314 195.794C45.585 197.155 46.623 183.025 46.5482 180.874C46.3985 176.531 46.2969 172.184 46.3924 167.837C46.462 164.7 47.0328 161.296 46.6939 158.157C45.8617 150.451 41.7864 158.57 40.6408 161.439C37.7459 168.68 36.4365 176.432 33.8404 183.789C33.4086 185.013 32.394 189.133 30.7864 189.21C28.9978 189.294 29.0118 185.039 28.9095 183.796C28.316 176.59 26.3114 169.434 26.9163 162.154C27.5273 154.802 29.9509 147.244 33.3805 140.85C40.6314 127.33 53.7255 119.568 66.2676 112.497C80.621 104.406 95.7745 98.0137 111.251 92.8063C129.865 86.5434 148.978 81.4759 168.205 77.8697C177.987 76.0353 187.921 74.7233 197.803 73.6714C201.276 73.3018 204.75 73.0858 208.179 72.3829C209.473 72.1171 214.142 70.8541 213.786 73.6721ZM223.785 50.5914C218.881 50.6326 213.871 48.1045 209.093 47.0598C203.405 45.8146 197.85 44.0129 192.172 42.713C181.053 40.1679 169.928 37.686 158.819 35.0848C153.996 33.9554 149.15 32.9725 144.346 31.7595C139.207 30.4617 133.655 29.0147 128.394 30.4127C120.421 32.5321 117.053 41.8075 114.125 49.0462C112.057 54.1592 110.437 59.8585 107.212 64.3076C106.063 65.894 104.431 67.7859 102.349 67.2721C98.4809 66.3183 99.0951 60.8755 99.5877 57.867C100.302 53.5011 101.313 49.1863 102.122 44.8402C102.449 43.0861 104.976 31.606 100.463 33.3833C97.1153 34.7017 95.344 43.3853 94.0767 46.4869C93.1349 48.7918 92.137 51.0818 91.0802 53.3298C89.6699 56.3283 85.6461 66.3474 81.1911 65.0553C74.8158 63.206 80.9311 45.3846 82.0173 41.6284C82.6135 39.5666 89.0937 23.9302 83.6241 25.208C81.2947 25.7532 79.0255 30.3537 77.8377 32.2606C75.7316 35.6427 73.6321 39.0492 71.6496 42.5147C69.6103 46.079 68.5689 50.1358 66.5463 53.6482C65.4822 55.4968 63.3105 57.9602 61.1903 56.2487C57.8851 53.5828 59.8442 44.3093 60.423 40.8026C61.4998 34.2831 64.1748 27.5996 67.845 22.2699C73.3601 14.2615 83.7665 11.6737 92.5173 10.1179C103.813 8.10944 115.265 8.65883 126.608 9.84716C139.365 11.184 151.927 12.6154 164.501 15.3489C177.173 18.1036 189.852 20.8364 202.329 24.4796C208.207 26.196 214.17 27.7176 219.964 29.7325C226.124 31.8739 232.136 34.5389 238.468 36.0819C236.241 41.9916 234.013 47.9013 231.786 53.8117C229.654 51.5693 226.744 50.5658 223.785 50.5914ZM332.951 66.8762C334.904 65.7404 337.062 65.2046 337.775 62.6943C338.405 60.4761 337.328 57.963 336.813 55.8337C335.374 49.8721 334.995 43.6966 336.269 37.6647C337.486 39.6412 342.045 47.2438 344.818 42.6412C346.49 39.8651 342.009 35.8715 340.701 33.9199C343.571 32.0367 347.67 26.982 350.978 30.0303C353.115 32.0012 354.02 33.8986 356.9 34.8566C360.397 36.0201 363.689 35.7536 367.259 35.4323C369.759 35.2077 370.361 34.8531 371.338 36.9C372.105 38.509 372.5 40.5005 372.949 42.2283C373.831 45.6348 375.874 52.3469 373.454 55.538C371.335 58.3333 363.11 55.9367 361.968 59.5451C361.345 61.5131 364.318 61.5834 365.454 62.5571C366.861 63.7625 368.025 65.6807 368.789 67.3943C369.355 68.6615 370.216 70.7553 369.253 72.051C367.921 73.8434 365.453 72.4838 364.38 71.181C362.955 69.4504 362.492 67.0844 361.303 65.1996C359.121 61.7412 358.99 64.4924 358.396 66.9757C357.779 69.5556 356.32 69.3779 354.084 69.7091C350.161 70.2912 346.196 71.1121 342.378 72.2301C340.42 72.8029 338.524 73.5328 336.66 74.3857C335.458 74.9344 333.376 76.5968 332.073 76.6124C329.658 76.6415 327.984 72.3466 326.737 70.5549C328.806 69.3261 330.871 68.0858 332.951 66.8762ZM462.642 329.861C456.61 322.162 451.387 313.798 445.435 306.032C439.566 298.373 432.775 291.676 426.189 284.738C423.08 281.464 420.102 277.872 416.67 274.971C414.11 272.806 412.14 272.772 409.061 273.731C400.311 276.456 391.402 279.736 383.122 283.802C375.412 287.589 368.389 292.451 360.027 294.562C351.492 296.718 342.618 297.41 333.87 296.876C324.898 296.328 316.435 294.343 307.902 291.425C299.821 288.662 291.395 286.249 284.484 280.772C277.238 275.031 271.64 266.773 266.453 259.006C263.827 255.075 261.22 250.945 259.451 246.489C257.916 242.622 256.912 238.058 254.157 234.906C253.481 235.924 252.641 236.798 252.297 237.994C252.141 238.537 253.062 238.52 252.967 238.953C252.789 239.766 251.77 240.596 251.178 241.039C249.051 242.631 249.038 241.364 249.596 244.341C249.921 246.077 249.306 249.992 246.644 248.713C247.624 249.96 246.067 251.534 245.559 252.562C245.209 252.135 244.774 251.987 244.254 252.115C245.227 254.176 244.652 254.231 243.709 255.868C243.537 256.167 242.927 257.733 243.014 257.601C242.05 259.06 240.937 259.428 240.375 261.246C239.913 262.739 240.031 264.381 239.516 265.872C238.894 264.957 238.272 264.043 237.65 263.129C237.777 263.848 238.031 264.912 238.326 265.565C238.512 265.973 239.309 266.925 239.298 267.148C239.254 267.979 238.279 267.78 238 268.497C237.478 269.842 238.233 270.04 237.948 271.353C237.622 272.86 236.747 272.257 236.33 273.541C236.251 273.785 236.866 274.745 236.769 275.271C236.632 276.014 235.998 276.43 235.774 277.091C235.205 278.772 235.412 280.003 234.621 281.616C234.315 282.241 233.869 282.658 233.653 283.369C233.464 283.994 233.871 285.325 233.506 285.885C231.743 288.585 231.991 283.934 232.124 282.781C233.247 273.096 236.847 263.1 240.143 254.048C241.78 249.55 243.374 244.912 245.427 240.604C246.253 238.869 247.207 237.079 248.573 235.752C250.3 234.073 252.75 233.402 254.314 231.527C254.068 231.823 256.01 229.868 255.699 230.511C255.977 229.936 255.492 229.159 255.665 228.603C255.879 227.913 256.285 227.768 256.737 227.164C257.549 226.079 258.513 225.539 257.238 224.157C259.131 223.712 260.036 223.059 260.414 220.904C260.69 219.327 260.133 219.43 261.106 218.378C262.083 217.322 262.577 218.147 263.193 216.318C263.929 214.13 264.417 211.154 264.858 208.864C265.243 206.865 264.309 203.924 265.894 202.513C267.901 200.725 269.697 201.482 269.337 197.888C268.987 194.383 270.011 192.26 271.04 188.944C273.094 182.323 273.888 175.333 275.689 168.634C279.533 154.337 286.323 141.447 293.625 128.862C300.372 117.233 309.804 107.326 318.913 97.7842C321.407 95.1708 323.873 92.5198 326.112 89.6549C328.041 87.188 328.922 83.8291 330.776 81.4873C331.903 80.0651 333.999 79.4567 335.572 78.7026C338.195 77.4447 341.32 75.8036 344.281 76.058C343.104 80.2748 342.721 85.2022 346.192 88.3642C350.404 92.2 354.221 88.215 358.082 86.0281C365.119 82.0416 375.183 85.7011 381.319 79.7261C382.781 78.3032 383.189 76.0296 384.707 74.7006C385.822 73.7262 387.409 73.4788 388.664 72.7525C392.477 70.5457 394.328 66.5059 392.843 62.0433C391.486 57.9637 389.378 56.5487 394.071 54.4812C397.881 52.8038 399.33 50.2765 397.605 45.7769C395.961 41.487 392.948 40.993 390.098 38.1857C387.338 35.4664 390.509 32.3018 392.577 30.2606C395.244 27.6274 395.754 25.2542 392.662 22.5158C389.424 19.6488 384.802 19.749 381.028 21.1669C376.759 22.7696 373.947 25.4341 372.141 29.7517C370.302 34.1473 365.743 32.9206 362.05 31.6955C358.519 30.5243 357.6 27.9969 355.281 25.2756C352.703 22.2486 347.447 24.8371 344.406 26.2201C336.914 29.6245 329.47 34.9974 329.172 44.5147C328.995 50.1898 331.252 55.0135 332.426 60.3404C333.499 65.2117 326.139 64.8279 324.865 69.54C311.269 61.8869 296.127 59.5451 280.929 59.0241C264.776 58.4697 248.39 58.0255 232.374 60.7348C236.091 53.8479 238.055 46.2957 241.289 39.2205C242.22 37.1835 242.621 37.3577 244.676 37.9732C248.623 39.1551 252.54 40.4777 256.479 41.6952C270.869 46.1429 284.976 51.5018 298.889 57.371C300.241 57.9417 303.261 59.5259 304.446 57.8031C305.813 55.8166 302.649 53.3674 301.369 52.3682C295.766 47.9979 288.824 45.3455 282.549 42.2794C268.831 35.578 253.641 32.397 239.328 27.4198C208.428 16.673 176.461 8.511 144.349 3.12015C136.513 1.8046 128.593 1.61199 120.722 0.635458C113.751 -0.229494 106.766 -0.209593 99.7956 0.683788C86.9207 2.3348 71.9945 5.89695 64.7229 18.4284C58.1584 29.7432 53.7764 42.4642 55.4514 55.8855C55.9547 59.9168 57.5602 64.6907 62.2384 63.6516C65.4835 62.931 67.2067 59.9992 68.7133 57.1378C70.9899 52.8152 73.2384 48.4926 75.7055 44.2858C76.6205 50.5935 73.2952 56.796 73.8179 63.2216C74.1735 67.5819 76.4394 74.471 81.7633 73.2365C89.0603 71.5449 92.0635 59.4235 95.5719 53.6084C95.7497 58.0874 94.2732 62.5017 94.7251 66.9906C95.1709 71.4248 98.4294 75.611 103.006 75.0033C107.323 74.4305 110.128 69.513 111.961 65.8108C114.513 60.6588 116.345 55.135 118.837 49.9489C121.173 45.0875 123.939 39.3001 129.515 38.3868C134.491 37.5709 140.194 39.4593 145.11 40.2382C158.745 42.3988 172.105 46.0775 185.591 49.0498C200.05 52.236 214.851 54.1713 228.865 59.3127C223.938 66.4441 211.043 64.9032 203.702 65.6687C192.609 66.8257 181.374 67.6964 170.344 69.4035C159.45 71.0894 148.785 74.0822 137.976 76.2549C127.224 78.4162 116.49 80.5811 106.087 84.2669C86.7703 91.1105 67.1318 99.7714 50.1128 111.712C42.1942 117.269 35.1598 123.619 30.2684 132.389C25.3456 141.214 22.9801 151.194 22.0777 161.345C21.5163 167.666 22.4701 173.137 23.6218 179.289C24.4559 183.743 24.726 191.2 28.0847 194.462C34.4954 200.687 39.818 175.437 41.0017 172.387C41.8539 177.385 40.4603 205.541 50.7465 203.251C55.3371 202.229 56.3785 195.529 57.1398 191.494C58.5287 184.137 59.7726 176.633 62.1482 169.547C63.6728 179.094 64.3085 189.04 67.593 198.158C69.7747 204.213 75.9996 214.958 80.3396 204.591C83.5947 196.817 82.4778 187.893 82.8682 179.639C83.3006 170.492 85.7704 161.669 86.6447 152.612C86.9836 149.103 86.6768 145.148 89.9927 143.234C92.8395 141.59 97.0023 141.055 100.11 140.138C109.316 137.42 118.583 134.922 127.745 132.038C136.912 129.153 145.951 125.782 154.995 122.492C163.645 119.345 172.477 117.557 181.232 114.862C186.21 113.33 191.127 111.727 196.174 110.448C198.523 109.853 200.9 109.39 203.244 108.773C204.981 108.317 207.27 106.595 209.056 106.626C210.894 106.658 211.584 108.312 213.692 108.442C215.962 108.582 218.269 108.049 220.526 107.865C226.023 107.417 231.867 106.692 237.352 107.502C234.055 111.66 229.603 114.534 225.701 117.978C221.201 121.95 216.845 126.239 213.001 130.93C205.266 140.369 197.956 150.345 191.164 160.57C184.465 170.658 179.071 181.696 174.381 192.974C172.045 198.593 169.776 204.336 168.162 210.243C167.499 212.669 166.957 215.105 165.76 217.312C164.662 219.336 163.115 221.081 164.413 223.525C165.306 222.93 166.109 222.191 166.917 221.477C165.983 228.471 163.968 235.237 162.932 242.21C161.911 249.08 161.952 256.145 162.018 263.083C162.157 277.613 163.173 291.814 165.945 306.066C168.749 320.478 172.35 334.78 176.891 348.682C181.263 362.068 185.649 376.105 191.751 388.721C198.268 402.197 206.021 416.364 215.454 427.771C209.292 430.454 201.451 429.953 194.926 431.034C188.105 432.164 182.205 434.297 176.393 438.309C170.512 442.37 167.32 447.598 166.507 455.003C165.929 460.273 164.214 467.569 170.716 468.954C175.393 469.949 180.621 468.314 185.307 467.91C193.505 467.203 201.713 466.762 209.929 466.381C218.123 466.001 226.319 465.666 234.516 465.396C238.371 465.269 242.229 465.205 246.083 465.057C247.81 464.992 248.857 464.964 250.406 465.495C251.631 465.915 251.541 466.787 252.905 465.708C255.104 463.969 254.651 458.486 254.59 456.075C254.496 452.355 254.165 448.591 253.482 444.941C253.077 442.772 248.16 428.79 251.984 428.201C247.542 423.012 245.768 415.601 243.773 409.096C241.273 400.947 239.079 392.821 237.356 384.439C233.677 366.535 232.05 348.436 232.05 330.117C249.107 341.296 267.153 347.352 287.243 348.027C307.216 348.698 329.159 346.954 348.125 339.889C356.908 336.617 364.776 332.32 372.306 326.531C375.005 324.456 377.896 319.757 381.439 319.837C385.667 319.934 390.401 321.635 394.599 322.363C402.628 323.755 413.108 324.54 419.905 329.821C423.598 332.689 426.244 336.704 429.539 340.009C432.046 342.524 435.36 343.889 437.848 346.403C440.532 349.116 439.466 352.661 443.917 352.88C447.722 353.067 451.893 351.44 455.174 349.529C461.721 345.718 468.692 337.582 462.642 329.861Z" fill="black"/>
<path fill-rule="evenodd" clip-rule="evenodd" d="M399.72 148.563C409.3 155.799 420.289 160.742 430.3 167.259C432.806 168.89 440.613 172.277 440.537 175.302C440.493 177.071 438.147 179.289 437.12 180.515C435.36 182.616 433.704 184.738 432.08 186.959C424.646 197.133 417.645 207.403 409.588 217.066C408.375 218.52 404.721 225.46 403.541 222.013C403.006 220.45 403.447 218.694 402.053 217.237C401.336 216.487 398.564 216.073 399.371 214.463C399.91 214.72 400.448 214.978 400.987 215.235C400.569 213.949 400.599 212.539 399.972 211.323C399.583 210.568 398.821 210.21 398.557 209.359C398.192 208.184 398.811 206.818 398.708 205.606C398.605 204.398 398.017 203.256 397.665 202.116C395.58 195.358 394.832 188.546 393.765 181.574C392.709 174.675 391.064 167.992 390.418 161.016C389.736 153.648 388.899 146.295 387.784 138.986C389.775 139.283 391.306 141.583 392.714 142.884C394.928 144.928 397.332 146.759 399.72 148.563ZM392.209 219.897C391.752 219.515 391.395 219.046 391.137 218.49C395.832 216.017 392.999 220.236 392.209 219.897ZM389.354 214.622C387.307 215.221 385.837 215.343 384.259 214.447C384.109 214.363 384.281 213.708 384.011 213.574C383.775 213.457 383.415 213.602 383.213 213.492C382.526 213.121 381.323 213.935 381.206 212.512C383.818 211.662 386.387 210.094 389.145 209.829C392.977 209.462 392.8 213.611 389.354 214.622ZM380.387 206.42C377.594 207.114 375.293 208.736 372.326 208.312C369.541 207.916 367.121 206.38 364.924 204.61C370.42 202.956 376.184 202.657 381.675 201.057C383.463 200.536 385.813 199.162 387.74 199.716C389.881 200.331 390.016 202.463 390.657 204.403C387.231 205.059 383.779 205.577 380.387 206.42ZM362.92 198.187C360.237 198.868 357.495 200.359 355.252 197.787C354.89 197.372 354.573 197.786 354.615 196.507C354.66 195.159 355.811 194.291 356.801 193.816C359.129 192.7 362.391 193.421 364.863 193.257C368.806 192.996 372.819 192.125 376.719 191.454C379.419 190.99 382.209 189.959 384.969 190.163C387.099 190.32 389.67 192.251 386.565 193.659C383.737 194.943 379.496 194.746 376.432 195.302C371.903 196.124 367.39 197.051 362.92 198.187ZM360.3 184.765C360.473 184.954 360.647 185.142 360.821 185.33C360.792 185.323 361.85 184.413 362.13 184.387C363.49 184.261 364.858 184.36 366.22 184.279C369.359 184.09 372.523 183.509 375.606 182.869C378.117 182.347 380.675 181.448 383.259 181.673C385.497 181.868 385.733 182.355 385.879 184.652C380.167 184.652 374.283 184.524 368.669 185.81C365.014 186.646 360.986 189.138 359.155 184.646C359.537 184.686 359.918 184.726 360.3 184.765ZM363.871 175.043C365.287 176.191 369.149 174.283 370.846 174.092C372.69 173.885 374.424 173.67 376.211 173.181C377.795 172.748 383.036 170.583 384.251 172.653C386.114 175.825 378.571 176.407 377.375 176.564C372.36 177.223 367.157 177.807 362.277 179.206C362.808 177.819 363.34 176.432 363.871 175.043ZM370.75 164.27C371.117 165.736 382.458 160.333 382.665 164.26C382.824 167.272 371.443 168.773 369.397 168.509C369.877 167.122 371.151 165.879 370.75 164.27ZM374.558 155.054C374.799 152.096 375.172 152.113 377.403 151.835C379.104 151.622 381.442 150.562 381 153.786C380.621 156.546 374.315 158.038 374.558 155.054ZM378.612 144.878C379.149 143.29 380.357 145.428 380.382 146.235C380.449 148.383 378.918 147.919 377.443 147.919C377.853 146.915 378.244 145.9 378.612 144.878ZM397.279 132.96C396.978 132.575 395.289 132.428 394.809 132.241C393.627 131.78 393.795 130.799 392.283 131.767C392.207 131.686 392.351 130.958 392.269 130.925C392.228 130.907 391.168 130.482 390.824 130.248C389.993 129.682 389.244 129.129 388.481 128.419C387.67 127.664 386.857 126.57 385.93 125.969C385.539 125.716 385.219 125.357 384.748 125.28C383.525 125.08 383.876 125.985 382.807 126.165C382.149 126.276 381.669 125.458 380.808 125.811C380.064 126.115 379.633 127.224 379.301 127.885C378.096 130.288 377.166 132.874 375.987 135.303C369.953 147.721 363.096 159.668 357.252 172.203C354.438 178.241 351.501 184.321 349.52 190.738C348.091 195.367 344.865 202.128 347.641 206.752C349.659 210.115 353.699 211.567 356.923 213.192C361.773 215.636 366.245 218.832 371.149 221.202C376.997 224.029 382.676 226.985 388.376 230.142C390.807 231.488 393.001 233.427 395.424 234.702C396.906 235.481 399.194 234.151 399.677 235.938C401.534 233.546 404.541 235.141 406.69 233.456C407.954 232.466 408.878 230.514 409.932 229.294C411.513 227.464 413.23 225.767 414.843 223.97C421.247 216.83 427.161 209.395 432.987 201.727C438.552 194.404 445.054 187.486 449.755 179.471C451.622 176.289 451.96 172.952 450.728 169.437C449.828 166.872 447.661 163 444.566 164.698C445.74 162.626 441.212 160.412 439.838 160.007C439.818 160.002 439.547 161.594 439.164 161.554C439.3 161.568 438.013 158.027 437.447 157.572C435.768 156.221 433.726 154.645 431.894 153.533C430.213 152.513 428.44 152.007 426.812 150.866C424.839 149.483 423.028 147.843 421.047 146.469C419.135 145.143 417.003 143.575 414.89 142.663C413.057 141.872 411.412 141.717 409.763 140.421C407.723 138.816 405.943 137.728 403.59 136.623C401.555 135.667 398.734 134.832 397.279 132.96Z" fill="black"/>
<path fill-rule="evenodd" clip-rule="evenodd" d="M119.451 325.028C119.825 324.094 120.198 323.159 120.573 322.225C121.035 323.854 121.165 324.665 119.451 325.028ZM119.949 329.345C119.138 329.5 119.458 326.795 119.458 326.324C120.858 327.167 119.698 328.178 119.949 329.345ZM118.685 321.544C119.376 321.109 120.067 320.676 120.758 320.242C119.796 322.138 120.174 320.953 120.571 322.22C119.845 322.441 119.139 322.183 118.685 321.544ZM114.589 336.364C111.998 346.359 103.769 354.241 95.0782 358.324C90.0838 360.67 85.1737 361.257 79.7803 360.995C77.7002 360.894 75.2525 360.176 73.2506 360.309C71.7092 360.413 71.7788 360.484 70.5021 361.871C69.9373 360.765 70.3464 359.989 69.2134 359.345C67.7997 358.542 67.2129 359.477 66.5117 360.589C65.594 359.578 65.2183 359.05 64.0292 358.449C64.0667 358.469 62.8909 358.421 62.9391 358.437C62.7265 358.367 61.4478 357.493 61.0475 357.334C59.4045 356.678 57.5049 356.409 55.989 355.469C54.6628 354.648 53.5707 352.343 52.0534 354.114C52.052 351.155 48.3029 349.927 46.5457 348.377C43.7999 345.955 41.6168 342.369 40.2479 338.9C38.7881 335.2 38.3009 331.654 37.6177 327.841C37.1405 325.178 34.015 321.327 35.8919 318.639C36.3391 319.766 36.1292 320.92 36.8718 321.942C37.5402 320.573 37.9078 319.041 38.2099 317.542C38.3583 316.807 39.2179 314.653 39.1203 314.013C38.9218 312.704 37.3978 312.633 38.2427 311.028C39.9953 313.056 41.4096 309.495 40.0855 308.075C39.4318 308.859 39.1918 309.75 38.8904 310.721C37.1672 307.022 41.9363 308.213 40.8929 304.874C42.6335 304.518 43.6341 304.052 44.2958 302.223C45.0317 300.189 44.4903 299.745 46.1613 298.4C46.7362 297.938 48.3617 297.274 48.6592 296.513C49.2347 295.044 47.7702 294.609 49.0529 293.232C49.486 294.04 51.1744 295.64 52.0988 294.118C52.284 293.814 51.5066 293.599 52.0721 292.899C52.9096 291.865 53.8467 290.85 55.2631 291.067C54.1415 288.086 61.3081 287.85 63.1436 287.146C64.9831 286.442 66.5438 285.979 68.4942 285.816C70.4426 285.652 70.5395 285.045 72.1892 283.798C72.3289 285.582 72.7326 285.19 73.9257 285.505C74.2124 284.982 74.5065 284.923 74.8073 285.329C75.1068 285.632 75.4731 285.774 75.9049 285.757C76.5599 285.793 77.3032 285.702 77.9896 285.717C79.6011 285.75 81.2635 285.607 82.8443 285.644C83.252 285.571 83.633 285.42 83.9899 285.191C84.139 285.489 84.2887 285.789 84.4371 286.088C85.2746 286.199 85.3394 287.315 86.3695 286.095C86.6743 287.646 87.5499 286.839 88.4749 287.26C89.3185 287.644 89.4528 288.258 90.2315 288.687C90.7435 289.128 91.2923 289.187 91.8792 288.863C92.4373 289.303 93.0041 289.73 93.5789 290.145C94.6384 290.781 95.8869 291.17 97.0032 291.673C97.7458 291.998 98.4837 292.337 99.2156 292.688C99.2377 293.628 99.634 293.96 100.404 293.683C101.1 294.302 101.296 294.278 101.971 295.332C103.5 297.721 104.857 299.577 106.789 301.712C115.185 310.994 117.764 324.117 114.589 336.364ZM117.166 296.894C113.375 291.497 108.01 285.317 103.189 281.908C100.745 280.18 97.3147 277.077 94.3262 276.163C93.6177 275.946 92.8844 275.932 92.188 275.705C91.6499 275.529 91.3571 274.942 90.7435 274.836C90.3144 274.762 90.2669 275.784 89.8111 275.69C88.8579 275.492 88.2537 274.487 87.5806 273.858C86.1349 276.507 85.3501 272.052 83.2273 275.047C80.7007 270.834 74.7652 271.755 70.7307 271.968C69.5342 272.03 68.9721 272.483 67.9114 272.819C66.9241 273.131 66.8265 273.05 65.7484 273.042C63.0634 273.02 60.6798 273.379 58.198 274.632C54.0285 276.738 50.2012 280.02 46.2409 282.558C41.8147 285.394 37.8249 289.005 34.4388 293.153C22.1975 308.154 18.9243 330.049 28.6851 347.439C44.1889 375.058 84.1804 378.01 106.841 359.27C124.349 344.79 131.012 316.606 117.166 296.894Z" fill="black"/>
<path fill-rule="evenodd" clip-rule="evenodd" d="M309.058 219.172C308.623 220.275 304.56 219.904 304.471 218.602C304.338 216.658 309.814 217.253 309.058 219.172ZM313.374 218.45C315.677 218.649 319.46 220.312 321.679 219.307C325.066 217.773 321.509 215.419 319.692 214.715C317.844 214 315.09 214.38 314.139 212.325C313.424 210.779 315.191 206.463 312.999 207.157C310.698 207.885 311.367 214.067 307.757 211.983C306.036 210.988 306.738 204.932 303.854 208.026C303.064 208.873 302.996 210.427 301.95 211.058C300.883 211.703 299.545 211.031 298.419 211.087C295.437 211.236 294.487 214.202 297.509 215.378C298.627 215.814 302.842 216.345 300.289 218.288C298.68 219.512 295.106 216.944 293.724 219.074C291.825 222.001 296.912 222.067 298.278 222.943C300.593 224.425 298.681 227.889 298.866 230.355C299.148 234.123 301.207 233.336 301.955 230.147C302.589 227.441 301.803 223.546 305.639 224.622C311.886 226.373 302.165 234.806 306.741 236.963C309.659 238.339 310.072 230.901 310.299 229.621C311.137 224.894 313.635 225.997 317.418 226.142C321.837 226.311 322.904 222.835 318.224 221.839C316.731 221.521 314.677 221.923 313.38 220.912C312.613 220.314 311.558 218.293 313.374 218.45Z" fill="black"/>
<path fill-rule="evenodd" clip-rule="evenodd" d="M150.198 372.886C146.621 371.524 140.638 371.818 139.753 376.73C139.383 378.786 140.104 380.961 141.439 382.455C142.988 384.187 145.454 384.348 145.323 381.331C145.231 379.244 143.363 377.431 146.647 377.01C148.691 376.748 151.715 378.374 151.816 380.775C152.046 386.186 143.237 386.611 139.99 385.675C133.547 383.818 135.297 376.642 139.722 373.367C140.865 372.52 144.145 371.217 144.295 369.459C144.494 367.128 141.783 367.604 140.454 367.911C130.687 370.172 128.558 387.571 138.764 390.851C143.398 392.34 149.925 390.802 152.719 386.339C155.337 382.154 155.373 374.856 150.198 372.886Z" fill="black"/>
<path fill-rule="evenodd" clip-rule="evenodd" d="M20.692 249.72C17.6387 251.283 14.5854 252.846 11.5328 254.409C10.5235 252.112 8.81839 245.839 6.25839 245.038C2.11425 243.741 4.75313 250.579 5.46832 252.143C6.05585 253.427 7.41874 255.417 7.08788 256.948C6.64406 259.011 3.90759 259.741 2.47519 260.805C-1.06938 263.439 -1.04131 268.971 4.09206 266.627C6.99697 265.3 10.5937 261.62 12.8201 265.798C13.8482 267.725 16.2838 278.494 18.8278 271.452C20.4019 267.092 12.8255 262.561 16.5606 258.873C17.763 257.686 19.1707 257.586 20.3718 256.903C23.2727 255.255 21.6371 252.21 20.692 249.72Z" fill="black"/>
<path fill-rule="evenodd" clip-rule="evenodd" d="M468.316 93.6876C466.496 92.9797 464.244 91.5973 462.221 92.0686C460.07 92.5689 459.205 94.8588 457.641 96.2355C453.391 99.9789 450.915 94.3997 448.58 91.3422C446.374 88.4552 443.683 87.7545 440.571 89.5284C439.331 90.2356 434.107 93.4758 435.018 95.5518C435.673 97.0457 438.254 95.7046 439.134 95.3784C441.045 94.6712 442.82 94.0522 444.774 95.0834C448.441 97.0166 449.392 102.318 453.827 103.144C458.414 103.999 458.564 99.3584 461.838 97.6115C464.032 96.4409 465.561 98.5134 467.677 98.1005C469.695 97.7074 470.628 94.5859 468.316 93.6876Z" fill="black"/>
<path fill-rule="evenodd" clip-rule="evenodd" d="M431.286 112.392C432.908 112.766 433.967 109.421 434.982 108.572C436.667 107.166 439.587 106.882 441.302 108.298C444.652 111.061 443.497 117.027 448.266 118.582C452.529 119.972 454.537 114.003 458.125 112.517C460.211 111.653 462.501 111.087 461.687 107.986C461.124 105.842 459.468 105.291 457.667 106.115C454.573 107.529 453.522 113.291 449.853 113.394C446.057 113.5 445.645 107.682 444.016 105.147C441.531 101.284 436.424 100.351 433.522 104.045C432.646 105.159 428.197 111.68 431.286 112.392Z" fill="black"/>
<path fill-rule="evenodd" clip-rule="evenodd" d="M356.253 46.4294C358.51 48.0711 363.007 48.0143 365.086 45.978C367.201 43.9063 364.377 43.5879 362.654 43.6511C361.329 43.7002 358.847 44.3988 359.603 41.9646C360.273 39.8047 363.958 40.9042 364.266 38.5332C361.492 38.0044 358.438 38.1949 356.386 40.5126C354.903 42.1877 354.141 44.8921 356.253 46.4294Z" fill="black"/>
</svg>
