<svg width="68" height="66" viewBox="0 0 68 66" fill="none" xmlns="http://www.w3.org/2000/svg">
<path fill-rule="evenodd" clip-rule="evenodd" d="M33.9925 23.7741H23.1398L28.6857 16.1633C27.4229 15.5836 26.0022 15.2581 24.5 15.2581C19.2533 15.2581 15 19.2297 15 24.129C15 29.0283 19.2533 33 24.5 33C29.7467 33 33.9999 29.0283 33.9999 24.129C33.9999 24.0101 33.9974 23.8918 33.9925 23.7741Z" fill="black"/>
<path fill-rule="evenodd" clip-rule="evenodd" d="M39.3449 16.2057C41.8531 14.6089 43.4999 11.9195 43.4999 8.87097C43.4999 3.97167 39.2467 0 34 0C28.7533 0 24.5 3.97167 24.5 8.87097C24.5 11.9196 26.1469 14.609 28.6552 16.2059L34.0001 8.87103L39.3449 16.2057Z" fill="black"/>
<path fill-rule="evenodd" clip-rule="evenodd" d="M34.0075 23.7741C34.0025 23.8918 34 24.0101 34 24.129C34 29.0283 38.2533 33 43.5 33C48.7467 33 52.9999 29.0283 52.9999 24.129C52.9999 19.2297 48.7467 15.2581 43.5 15.2581C41.9976 15.2581 40.5768 15.5837 39.3139 16.1635L44.8597 23.7741H34.0075Z" fill="black"/>
<path d="M24.082 47.0547C24.082 48.1719 24.0469 49.2852 23.9766 50.3945C23.9062 51.5039 23.8242 52.6172 23.7305 53.7344L17.707 54.0156C17.8867 52.6562 18.0469 51.2969 18.1875 49.9375C18.3359 48.5703 18.4102 47.2031 18.4102 45.8359C18.4102 45.75 18.4062 45.6016 18.3984 45.3906C18.3906 45.1719 18.375 44.9258 18.3516 44.6523C18.3359 44.3789 18.3086 44.0977 18.2695 43.8086C18.2383 43.5117 18.1914 43.2422 18.1289 43C18.0742 42.75 18.0039 42.5469 17.918 42.3906C17.832 42.2344 17.7305 42.1562 17.6133 42.1562C17.3398 42.1562 17.125 42.2617 16.9688 42.4727C16.8125 42.6758 16.6953 42.9219 16.6172 43.2109C16.5469 43.5 16.5039 43.7969 16.4883 44.1016C16.4727 44.3984 16.4648 44.6406 16.4648 44.8281C16.4648 45.1562 16.4727 45.4844 16.4883 45.8125C16.5039 46.1406 16.5117 46.4766 16.5117 46.8203C16.5117 48.0312 16.4805 49.2383 16.418 50.4414C16.3633 51.6445 16.293 52.8516 16.207 54.0625L10.6523 54.2734C10.832 52.9141 10.9883 51.5586 11.1211 50.207C11.2617 48.8477 11.332 47.4844 11.332 46.1172C11.332 46.0312 11.3281 45.875 11.3203 45.6484C11.3125 45.4219 11.2969 45.168 11.2734 44.8867C11.2578 44.6055 11.2305 44.3125 11.1914 44.0078C11.1523 43.7031 11.1016 43.4258 11.0391 43.1758C10.9844 42.918 10.9141 42.707 10.8281 42.543C10.7422 42.3789 10.6367 42.2969 10.5117 42.2969C10.3164 42.2969 10.1523 42.375 10.0195 42.5312C9.88672 42.6797 9.77734 42.875 9.69141 43.1172C9.61328 43.3594 9.55078 43.6289 9.50391 43.9258C9.46484 44.2148 9.43359 44.5 9.41016 44.7812C9.39453 45.0625 9.38281 45.3242 9.375 45.5664C9.375 45.8008 9.37109 45.9766 9.36328 46.0938L9.10547 54.6484H3.19922C3.32422 53.3281 3.44922 52.0039 3.57422 50.6758C3.70703 49.3477 3.82031 48.0234 3.91406 46.7031C4.01562 45.375 4.09766 44.0469 4.16016 42.7188C4.22266 41.3906 4.25391 40.0625 4.25391 38.7344L9.83203 38.5L9.80859 39.8594C9.98047 39.6406 10.1758 39.4219 10.3945 39.2031C10.6133 38.9766 10.8438 38.7773 11.0859 38.6055C11.3359 38.4258 11.5977 38.2812 11.8711 38.1719C12.1523 38.0625 12.4414 38.0078 12.7383 38.0078C13.1211 38.0078 13.4648 38.0391 13.7695 38.1016C14.0742 38.1562 14.3477 38.2539 14.5898 38.3945C14.8398 38.5352 15.0586 38.7305 15.2461 38.9805C15.4336 39.2227 15.5977 39.5312 15.7383 39.9062C15.9883 39.6328 16.2383 39.3789 16.4883 39.1445C16.7461 38.9102 17.0156 38.7109 17.2969 38.5469C17.5781 38.375 17.8828 38.2422 18.2109 38.1484C18.5391 38.0547 18.9023 38.0078 19.3008 38.0078C20.0586 38.0078 20.7031 38.1562 21.2344 38.4531C21.7656 38.7422 22.207 39.1289 22.5586 39.6133C22.918 40.0977 23.1953 40.6523 23.3906 41.2773C23.5938 41.9023 23.7461 42.5508 23.8477 43.2227C23.9492 43.8945 24.0117 44.5625 24.0352 45.2266C24.0664 45.8906 24.082 46.5 24.082 47.0547ZM38.2383 45.5312C38.2383 46.2109 38.1914 46.8906 38.0977 47.5703C36.7617 47.6562 35.4336 47.7969 34.1133 47.9922C32.793 48.1797 31.4727 48.3672 30.1523 48.5547C30.3555 49.1172 30.6719 49.5664 31.1016 49.9023C31.5391 50.2383 32.0586 50.4062 32.6602 50.4062C32.9727 50.4062 33.3125 50.3477 33.6797 50.2305C34.0547 50.1133 34.4258 49.9688 34.793 49.7969C35.1602 49.6172 35.5117 49.4258 35.8477 49.2227C36.1836 49.0195 36.4727 48.8359 36.7148 48.6719L36.1523 53.9922C35.8477 54.2266 35.5156 54.4258 35.1562 54.5898C34.8047 54.7539 34.4375 54.8867 34.0547 54.9883C33.6719 55.0898 33.2852 55.1641 32.8945 55.2109C32.5039 55.2578 32.1211 55.2812 31.7461 55.2812C30.9727 55.2812 30.2656 55.1758 29.625 54.9648C28.9844 54.7539 28.4023 54.4609 27.8789 54.0859C27.3633 53.7031 26.9102 53.2539 26.5195 52.7383C26.1289 52.2227 25.8047 51.6602 25.5469 51.0508C25.2891 50.4414 25.0938 49.7969 24.9609 49.1172C24.8281 48.4375 24.7617 47.75 24.7617 47.0547C24.7617 46.3281 24.8281 45.6016 24.9609 44.875C25.0938 44.1484 25.293 43.4492 25.5586 42.7773C25.832 42.1055 26.1719 41.4844 26.5781 40.9141C26.9922 40.3359 27.4727 39.832 28.0195 39.4023C28.5664 38.9727 29.1836 38.6367 29.8711 38.3945C30.5664 38.1523 31.332 38.0312 32.168 38.0312C32.8633 38.0312 33.4961 38.1289 34.0664 38.3242C34.6445 38.5117 35.1562 38.7773 35.6016 39.1211C36.0547 39.457 36.4453 39.8594 36.7734 40.3281C37.1094 40.7969 37.3828 41.3125 37.5938 41.875C37.8125 42.4297 37.9727 43.0195 38.0742 43.6445C38.1836 44.2617 38.2383 44.8906 38.2383 45.5312ZM33.5508 44.9219C33.5508 44.7031 33.5273 44.4805 33.4805 44.2539C33.4336 44.0195 33.3555 43.8086 33.2461 43.6211C33.1445 43.4336 33.0078 43.2812 32.8359 43.1641C32.6641 43.0391 32.4492 42.9766 32.1914 42.9766C31.8789 42.9766 31.6016 43.0625 31.3594 43.2344C31.125 43.3984 30.9219 43.6094 30.75 43.8672C30.5781 44.1172 30.4375 44.3906 30.3281 44.6875C30.2188 44.9844 30.1367 45.2578 30.082 45.5078L33.5508 45.1797V44.9219ZM52.0898 45.5312C52.0898 46.2109 52.043 46.8906 51.9492 47.5703C50.6133 47.6562 49.2852 47.7969 47.9648 47.9922C46.6445 48.1797 45.3242 48.3672 44.0039 48.5547C44.207 49.1172 44.5234 49.5664 44.9531 49.9023C45.3906 50.2383 45.9102 50.4062 46.5117 50.4062C46.8242 50.4062 47.1641 50.3477 47.5312 50.2305C47.9062 50.1133 48.2773 49.9688 48.6445 49.7969C49.0117 49.6172 49.3633 49.4258 49.6992 49.2227C50.0352 49.0195 50.3242 48.8359 50.5664 48.6719L50.0039 53.9922C49.6992 54.2266 49.3672 54.4258 49.0078 54.5898C48.6562 54.7539 48.2891 54.8867 47.9062 54.9883C47.5234 55.0898 47.1367 55.1641 46.7461 55.2109C46.3555 55.2578 45.9727 55.2812 45.5977 55.2812C44.8242 55.2812 44.1172 55.1758 43.4766 54.9648C42.8359 54.7539 42.2539 54.4609 41.7305 54.0859C41.2148 53.7031 40.7617 53.2539 40.3711 52.7383C39.9805 52.2227 39.6562 51.6602 39.3984 51.0508C39.1406 50.4414 38.9453 49.7969 38.8125 49.1172C38.6797 48.4375 38.6133 47.75 38.6133 47.0547C38.6133 46.3281 38.6797 45.6016 38.8125 44.875C38.9453 44.1484 39.1445 43.4492 39.4102 42.7773C39.6836 42.1055 40.0234 41.4844 40.4297 40.9141C40.8438 40.3359 41.3242 39.832 41.8711 39.4023C42.418 38.9727 43.0352 38.6367 43.7227 38.3945C44.418 38.1523 45.1836 38.0312 46.0195 38.0312C46.7148 38.0312 47.3477 38.1289 47.918 38.3242C48.4961 38.5117 49.0078 38.7773 49.4531 39.1211C49.9062 39.457 50.2969 39.8594 50.625 40.3281C50.9609 40.7969 51.2344 41.3125 51.4453 41.875C51.6641 42.4297 51.8242 43.0195 51.9258 43.6445C52.0352 44.2617 52.0898 44.8906 52.0898 45.5312ZM47.4023 44.9219C47.4023 44.7031 47.3789 44.4805 47.332 44.2539C47.2852 44.0195 47.207 43.8086 47.0977 43.6211C46.9961 43.4336 46.8594 43.2812 46.6875 43.1641C46.5156 43.0391 46.3008 42.9766 46.043 42.9766C45.7305 42.9766 45.4531 43.0625 45.2109 43.2344C44.9766 43.3984 44.7734 43.6094 44.6016 43.8672C44.4297 44.1172 44.2891 44.3906 44.1797 44.6875C44.0703 44.9844 43.9883 45.2578 43.9336 45.5078L47.4023 45.1797V44.9219ZM66.5156 44.1953C66.5156 44.9531 66.4023 45.625 66.1758 46.2109C65.9492 46.7969 65.6367 47.3125 65.2383 47.7578C64.8477 48.1953 64.3867 48.5664 63.8555 48.8711C63.3242 49.168 62.7539 49.4141 62.1445 49.6094C61.543 49.7969 60.918 49.9375 60.2695 50.0312C59.6211 50.1172 58.9844 50.1641 58.3594 50.1719V55.1641H52.8984C52.8984 54.2734 52.8984 53.4062 52.8984 52.5625C52.9062 51.7188 52.9102 50.8828 52.9102 50.0547C52.918 49.2188 52.9219 48.3789 52.9219 47.5352C52.9297 46.6914 52.9375 45.8203 52.9453 44.9219C52.9609 43.9688 52.9648 43.0156 52.957 42.0625C52.9492 41.1094 52.9688 40.1484 53.0156 39.1797C54.0156 38.8828 55.0156 38.6602 56.0156 38.5117C57.0156 38.3633 58.0469 38.2891 59.1094 38.2891C59.7109 38.2891 60.3125 38.3398 60.9141 38.4414C61.5156 38.5352 62.0898 38.6875 62.6367 38.8984C63.1914 39.1094 63.7031 39.375 64.1719 39.6953C64.6484 40.0078 65.0586 40.3828 65.4023 40.8203C65.7461 41.2578 66.0156 41.7578 66.2109 42.3203C66.4141 42.8828 66.5156 43.5078 66.5156 44.1953ZM61.3125 44.5938C61.3125 44.0859 61.1562 43.6914 60.8438 43.4102C60.5391 43.1211 60.1406 42.9766 59.6484 42.9766C59.4844 42.9766 59.3125 42.9922 59.1328 43.0234C58.9609 43.0469 58.7969 43.0781 58.6406 43.1172L58.5 46.5391C58.6094 46.5547 58.7148 46.5625 58.8164 46.5625C58.918 46.5625 59.0234 46.5625 59.1328 46.5625C59.4141 46.5625 59.6836 46.5156 59.9414 46.4219C60.207 46.3281 60.4414 46.1953 60.6445 46.0234C60.8477 45.8438 61.0078 45.6367 61.125 45.4023C61.25 45.1602 61.3125 44.8906 61.3125 44.5938Z" fill="black"/>
</svg>
